# AST/ASF file generated using VICON BodyLanguage
# -----------------------------------------------
:version 1.10
:name VICON
:units
  mass 1.0
  length 0.45
  angle deg
:documentation
   .ast/.asf automatically generated from VICON data using
   VICON BodyBuilder and BodyLanguage model FoxedUp or BRILLIANT.MOD
:root
   order TX TY TZ RX RY RZ
   axis XYZ
   position 0 0 0  
   orientation 0 0 0 
:bonedata
  begin
     id 1 
     name lhipjoint
     direction 0.577973 -0.728611 0.367523 
     length 2.48544 
     axis 0 0 0  XYZ
  end
  begin
     id 2 
     name lfemur
     direction 0.34202 -0.939693 0  
     length 7.1921  
     axis 0 0 20  XYZ
    dof rx ry rz
    limits (-160.0 20.0)
           (-70.0 70.0)
           (-60.0 70.0)
  end
  begin
     id 3 
     name ltibia
     direction 0.34202 -0.939693 0   
     length 7.71059   
     axis 0 0 20   XYZ
    dof rx
    limits (-10.0 170.0)
  end
  begin
     id 4 
     name lfoot
     direction 0.089538 -0.246004 0.965124   
     length 2.19909   
     axis -90 7.62852e-016 20   XYZ
    dof rx rz
    limits (-45.0 90.0)
           (-70.0 20.0)
  end
  begin
     id 5 
     name ltoes
     direction 1.53544e-011 -4.21829e-011 1   
     length 1.10116   
     axis -90 7.62852e-016 20   XYZ
    dof rx
    limits (-90.0 20.0)
  end
  begin
     id 6 
     name rhipjoint
     direction -0.554414 -0.743062 0.374812   
     length 2.4371  
     axis 0 0 0  XYZ 
  end
  begin
     id 7 
     name rfemur
     direction -0.34202 -0.939693 0   
     length 7.47254   
     axis 0 0 -20   XYZ
    dof rx ry rz
    limits (-160.0 20.0)
           (-70.0 70.0)
           (-70.0 60.0)
  end
  begin
     id 8 
     name rtibia
     direction -0.34202 -0.939693 0   
     length 7.65855   
     axis 0 0 -20   XYZ
    dof rx
    limits (-10.0 170.0)
 end
 begin
     id 9 
     name rfoot
     direction -0.133779 -0.367555 0.92033   
     length 2.43006  
     axis -90 -7.62852e-016 -20   XYZ
    dof rx rz
    limits (-45.0 90.0)
           (-20.0 70.0)
  end
  begin
     id 10 
     name rtoes
     direction -1.53563e-011 -4.21889e-011 1   
     length 1.19625   
     axis -90 -7.62852e-016 -20   XYZ
    dof rx
    limits (-90.0 20.0)
  end
  begin
     id 11 
     name lowerback
     direction 0.0249066 0.998043 -0.0573585   
     length 2.08485   
     axis 0 0 0   XYZ
    dof rx ry rz
    limits (-20.0 45.0)
           (-30.0 30.0)
           (-30.0 30.0)
  end
  begin
     id 12 
     name upperback
     direction 0.0237884 0.999673 0.00943178   
     length 2.08515   
     axis 0 0 0   XYZ
    dof rx ry rz
    limits (-20.0 45.0)
           (-30.0 30.0)
           (-30.0 30.0)
  end
  begin
     id 13 
     name thorax
     direction 0.0106671 0.999301 0.0358174   
     length 2.09037   
     axis 0 0 0   XYZ
    dof rx ry rz
    limits (-20.0 45.0)
           (-30.0 30.0)
           (-30.0 30.0)
  end
  begin
     id 14 
     name lowerneck
     direction -0.0580016 0.987052 0.149546   
     length 1.84454   
     axis 0 0 0   XYZ
    dof rx ry rz
    limits (-20.0 45.0)
           (-30.0 30.0)
           (-30.0 30.0)
  end
  begin
     id 15 
     name upperneck
     direction 0.079456 0.981963 -0.171567   
     length 1.88141   
     axis 0 0 0   XYZ
    dof rx ry rz
    limits (-20.0 45.0)
           (-30.0 30.0)
           (-30.0 30.0)
  end
  begin
     id 16
     name head
     direction 0.0262167 0.9967 -0.0768276  
     length 1.89541  
     axis 0 0 0   XYZ
    dof rx ry rz
    limits (-20.0 45.0)
           (-30.0 30.0)
           (-30.0 30.0)
  end
  begin
     id 17 
     name lclavicle
     direction 0.946135 0.322134 -0.0325326  
     length 3.949  
     axis 0 0 0   XYZ
    dof ry rz
    limits (-20.0 10.0)
           (0.0 20.0)
  end
  begin
     id 18 
     name lhumerus
     direction 1 -4.48964e-011 1.94005e-028   
     length 5.10995   
     axis 180 -30 -90   XYZ
    dof rx ry rz
    limits (-60.0 90.0)
           (-90.0 90.0)
           (-90.0 90.0)
  end
  begin
     id 19
     name lradius
     direction 1 -4.48976e-011 2.87852e-027   
     length 3.21207   
     axis 180 -30 -90   XYZ
    dof rx
    limits (-10.0 170.0)
  end
  begin
     id 20
     name lwrist
     direction 1 -4.48963e-011 1.9975e-027   
     length 1.60604   
     axis 2.96054e-016 90 90   XYZ
    dof ry
    limits (-180.0 0.0)
 end
  begin
     id 21 
     name lhand
     direction 1 -4.48919e-011 4.00227e-027   
     length 0.63349   
     axis -2.5488e-015 90 90   XYZ
    dof rx rz
    limits (-90.0 90.0)
           (-45.0 45.0)
  end
  begin
     id 22 
     name lfingers
     direction 1 -4.49037e-011 7.9652e-027   
     length 0.510736   
     axis -5.0975e-015 90 90   XYZ
    dof rx
    limits (0.0 90.0)
  end
  begin
     id 23
     name lthumb
     direction 0.707107 -6.34922e-011 0.707107   
     length 0.733318   
     axis -90 45 -4.48553e-014   XYZ
    dof rx rz
    limits (-45.0 45.0)
           (-45.0 45.0)
  end
  begin
     id 24 
     name rclavicle
     direction -0.940085 0.328911 -0.0897654   
     length 3.93848  
     axis 0 0 0   XYZ 
    dof ry rz
    limits (-10.0 20.0)
           (-20.0 0.0)
  end
  begin
     id 25 
     name rhumerus
     direction -1 -4.48958e-011 3.02044e-027  
     length 5.25109   
     axis 180 30 90   XYZ
    dof rx ry rz
    limits (-90.0 60.0)
           (-90.0 90.0)
           (-90.0 90.0)
  end
  begin
     id 26 
     name rradius
     direction -1 -4.4897e-011 9.78352e-028   
     length 3.28364   
     axis 180 30 90   XYZ
    dof rx
    limits (-10.0 170.0)
  end
  begin
     id 27 
     name rwrist
     direction -1 -4.48943e-011 1.99918e-027   
     length 1.64182   
     axis 2.96054e-016 -90 -90   XYZ
    dof ry
    limits (-180.0 0.0)
  end
  begin
     id 28
     name rhand
     direction -1 -4.49024e-011 3.98478e-027   
     length 0.599745   
     axis -2.5488e-015 -90 -90   XYZ
    dof rx rz
    limits (-90.0 90.0)
           (-45.0 45.0)
  end
  begin
     id 29
     name rfingers
     direction -1 -4.48914e-011 8.00621e-027   
     length 0.48353   
     axis -5.0975e-015 -90 -90   XYZ
    dof rx
    limits (0.0 90.0)
  end
  begin
     id 30
     name rthumb
     direction -0.707107 -6.34992e-011 0.707107   
     length 0.694255   
     axis -90 -45 4.48553e-014   XYZ
    dof rx rz
    limits (-45.0 45.0)
           (-45.0 45.0)
  end
:hierarchy
  begin
    root lhipjoint rhipjoint lowerback
    lhipjoint lfemur
    lfemur ltibia
    ltibia lfoot
    lfoot ltoes
    rhipjoint rfemur
    rfemur rtibia
    rtibia rfoot
    rfoot rtoes
    lowerback upperback
    upperback thorax
    thorax lowerneck lclavicle rclavicle
    lowerneck upperneck
    upperneck head
    lclavicle lhumerus
    lhumerus lradius
    lradius lwrist
    lwrist lhand lthumb
    lhand lfingers
    rclavicle rhumerus
    rhumerus rradius
    rradius rwrist
    rwrist rhand rthumb
    rhand rfingers
  end

#!OML:ASF E:\CV Data\Top Level 1\Subject 1\Session 1\player.ASF
:FULLY-SPECIFIED
:DEGREES
302
root 11.321 15.63 -5.32315 -30.3011 -94.7381 20.6703
lowerback -2.50819 -2.8469 -6.07276
upperback -7.48471 -4.147 -0.0201105
thorax -6.00071 -1.8218 3.47609
lowerneck -15.2385 13.4275 -4.35597
upperneck 34.5597 15.688 14.5024
head 12.1786 8.10602 8.35979
rclavicle -1.41137e-014 2.0276e-014
rhumerus -17.212 46.7377 -89.6574
rradius 118.607
rwrist 17.1913
rhand -48.802 44.5829
rfingers 7.12502
rthumb -21.4389 15.7491
lclavicle -1.41137e-014 2.0276e-014
lhumerus -24.6331 -55.7126 110.432
lradius 118.127
lwrist -7.4642
lhand -49.4295 13.7598
lfingers 7.12502
lthumb -22.0414 42.5237
rfemur -27.8812 5.50792 27.5407
rtibia 63.2527
rfoot -23.9042 -4.942
rtoes 15.2642
lfemur 10.2229 8.07641 -12.4907
ltibia 64.1697
lfoot 7.9671 -12.4038
ltoes -5.4106
303
root 11.2172 15.6286 -5.32238 -31.7474 -95.8517 21.4523
lowerback -2.24558 -2.73298 -5.40869
upperback -7.3085 -3.97482 0.138765
thorax -6.00006 -1.7658 3.27987
lowerneck -15.2227 13.5333 -4.42721
upperneck 34.4659 15.8663 14.5256
head 12.1035 8.18715 8.37554
rclavicle 3.55825e-014 2.0276e-014
rhumerus -16.5296 46.5305 -89.1853
rradius 118.81
rwrist 16.9326
rhand -48.8209 44.8901
rfingers 7.12502
rthumb -21.457 16.0584
lclavicle 3.55825e-014 2.0276e-014
lhumerus -23.3962 -56.0219 109.448
lradius 118.111
lwrist -7.76443
lhand -49.2114 13.6308
lfingers 7.12502
lthumb -21.832 42.4193
rfemur -26.5329 6.1859 28.4052
rtibia 62.9677
rfoot -24.1367 -4.99345
rtoes 15.3003
lfemur 8.53789 8.66729 -11.3509
ltibia 67.6833
lfoot 9.32094 -13.5459
ltoes -0.404542
304
root 11.1179 15.6253 -5.31965 -33.1846 -96.9859 22.2368
lowerback -1.96386 -2.61092 -4.6806
upperback -7.10563 -3.78633 0.309888
thorax -5.98472 -1.70461 3.05876
lowerneck -15.2138 13.6405 -4.49659
upperneck 34.3598 16.0495 14.5401
head 12.0257 8.27062 8.38728
rclavicle 2.5842e-015 7.55382e-015
rhumerus -15.8011 46.3352 -88.702
rradius 118.983
rwrist 16.7627
rhand -48.8673 45.1781
rfingers 7.12502
rthumb -21.5016 16.3515
lclavicle 2.5842e-015 7.55382e-015
lhumerus -21.9983 -56.2757 108.308
lradius 118.074
lwrist -7.96152
lhand -48.9177 13.4652
lfingers 7.12502
lthumb -21.55 42.2863
rfemur -25.2044 6.81032 29.311
rtibia 62.6732
rfoot -24.3421 -5.00581
rtoes 15.359
lfemur 6.73832 9.36767 -10.1058
ltibia 71.2688
lfoot 9.43073 -14.3979
ltoes 2.55241
305
root 11.0238 15.6209 -5.31551 -34.5563 -98.1085 22.978
lowerback -1.66206 -2.49107 -3.92904
upperback -6.88293 -3.5967 0.491677
thorax -5.95923 -1.64324 2.83402
lowerneck -15.214 13.7501 -4.56401
upperneck 34.2517 16.238 14.5481
head 11.9495 8.35626 8.39738
rclavicle 1.15295e-014 1.74931e-014
rhumerus -15.0288 46.1622 -88.2038
rradius 119.117
rwrist 16.6712
rhand -48.9491 45.4318
rfingers 7.12502
rthumb -21.5801 16.6142
lclavicle 1.15295e-014 1.74931e-014
lhumerus -20.4535 -56.4623 107.032
lradius 118.003
lwrist -8.00967
lhand -48.6118 13.21
lfingers 7.12502
lthumb -21.2562 42.0645
rfemur -23.9143 7.36389 30.2297
rtibia 62.3744
rfoot -24.5218 -4.98153
rtoes 15.4302
lfemur 4.79986 10.1584 -8.78248
ltibia 74.9099
lfoot 8.40891 -14.8692
ltoes 3.48671
306
root 10.9351 15.616 -5.31034 -35.7055 -99.1805 23.5212
lowerback -1.34326 -2.37358 -3.20248
upperback -6.64396 -3.40814 0.666045
thorax -5.92425 -1.58058 2.61383
lowerneck -15.225 13.8525 -4.6201
upperneck 34.1401 16.4159 14.5447
head 11.8783 8.43731 8.40199
rclavicle 1.2921e-015 6.75868e-015
rhumerus -14.2193 45.9927 -87.6947
rradius 119.206
rwrist 16.6273
rhand -49.0399 45.6537
rfingers 7.12502
rthumb -21.6674 16.8461
lclavicle 1.2921e-015 6.75868e-015
lhumerus -18.7909 -56.5932 105.648
lradius 117.897
lwrist -7.87938
lhand -48.2636 12.8202
lfingers 7.12502
lthumb -20.9216 41.7119
rfemur -22.6759 7.83744 31.1077
rtibia 62.0803
rfoot -24.6811 -4.91867
rtoes 15.5252
lfemur 2.70526 11.04 -7.43298
ltibia 78.5791
lfoot 6.59508 -14.8977
ltoes 2.96427
307
root 10.8513 15.6116 -5.30384 -36.5969 -100.181 23.8244
lowerback -1.00035 -2.25945 -2.53916
upperback -6.39111 -3.22325 0.832961
thorax -5.88444 -1.51572 2.42012
lowerneck -15.2528 13.9444 -4.66758
upperneck 34.0317 16.5818 14.5231
head 11.8169 8.51128 8.40069
rclavicle 4.26393e-014 2.46493e-014
rhumerus -13.3757 45.8347 -87.1614
rradius 119.25
rwrist 16.5818
rhand -49.1312 45.8409
rfingers 7.12502
rthumb -21.755 17.0435
lclavicle 4.26393e-014 2.46493e-014
lhumerus -17.0321 -56.6588 104.197
lradius 117.741
lwrist -7.59194
lhand -47.9077 12.2918
lfingers 7.12502
lthumb -20.5797 41.2209
rfemur -21.4845 8.22872 31.91
rtibia 61.7957
rfoot -24.8288 -4.81904
rtoes 15.6391
lfemur 0.448242 12.0005 -6.10823
ltibia 82.2381
lfoot 4.46985 -14.4679
ltoes 1.99083
